<mxfile host="app.diagrams.net" modified="2023-09-25T10:11:19.624Z" agent="Mozilla/5.0 (Windows NT 10.0; Win64; x64) AppleWebKit/537.36 (KHTML, like Gecko) Chrome/117.0.0.0 Safari/537.36 Edg/117.0.2045.41" etag="AzSWBZUyBKguQAZJ6Suo" version="21.6.6" type="github">
  <diagram name="第 1 页" id="pWrtRXzck8s2EkGPKfoR">
    <mxGraphModel dx="1638" dy="911" grid="1" gridSize="10" guides="1" tooltips="1" connect="1" arrows="1" fold="1" page="1" pageScale="1" pageWidth="827" pageHeight="1169" math="0" shadow="0">
      <root>
        <mxCell id="0" />
        <mxCell id="1" parent="0" />
        <mxCell id="Kmh5hY4usbPzmMP1m1Lr-80" style="edgeStyle=orthogonalEdgeStyle;rounded=0;orthogonalLoop=1;jettySize=auto;html=1;entryX=0.5;entryY=0;entryDx=0;entryDy=0;" edge="1" parent="1" source="Kmh5hY4usbPzmMP1m1Lr-81" target="Kmh5hY4usbPzmMP1m1Lr-83">
          <mxGeometry relative="1" as="geometry">
            <mxPoint x="183.5" y="295" as="targetPoint" />
          </mxGeometry>
        </mxCell>
        <mxCell id="Kmh5hY4usbPzmMP1m1Lr-81" value="&lt;span style=&quot;text-align: left;&quot;&gt;      入参：orderId&lt;/span&gt;" style="rounded=1;whiteSpace=wrap;html=1;" diagramCategory="general" diagramName="RoundedRectangle" vertex="1" parent="1">
          <mxGeometry x="117.5" width="160" height="60" as="geometry" />
        </mxCell>
        <mxCell id="Kmh5hY4usbPzmMP1m1Lr-82" value="" style="edgeStyle=orthogonalEdgeStyle;rounded=0;orthogonalLoop=1;jettySize=auto;html=1;exitX=0.5;exitY=1;exitDx=0;exitDy=0;entryX=0.5;entryY=0;entryDx=0;entryDy=0;" edge="1" parent="1" source="Kmh5hY4usbPzmMP1m1Lr-83" target="Kmh5hY4usbPzmMP1m1Lr-95">
          <mxGeometry relative="1" as="geometry">
            <mxPoint x="-56.5" y="465" as="targetPoint" />
            <mxPoint x="-42.5" y="135" as="sourcePoint" />
          </mxGeometry>
        </mxCell>
        <mxCell id="Kmh5hY4usbPzmMP1m1Lr-83" value="查询订单信息" style="rounded=0;whiteSpace=wrap;html=1;" diagramCategory="general" diagramName="Rectangle" vertex="1" parent="1">
          <mxGeometry x="117.5" y="100" width="160" height="60" as="geometry" />
        </mxCell>
        <mxCell id="Kmh5hY4usbPzmMP1m1Lr-84" value="是" style="edgeStyle=orthogonalEdgeStyle;rounded=0;orthogonalLoop=1;jettySize=auto;html=1;exitX=1;exitY=0.5;exitDx=0;exitDy=0;entryX=0.5;entryY=0;entryDx=0;entryDy=0;" edge="1" parent="1" source="Kmh5hY4usbPzmMP1m1Lr-87" target="Kmh5hY4usbPzmMP1m1Lr-158">
          <mxGeometry relative="1" as="geometry">
            <mxPoint x="650.0000000000005" y="690" as="targetPoint" />
            <Array as="points">
              <mxPoint x="518" y="630" />
            </Array>
          </mxGeometry>
        </mxCell>
        <mxCell id="Kmh5hY4usbPzmMP1m1Lr-85" style="edgeStyle=orthogonalEdgeStyle;rounded=0;orthogonalLoop=1;jettySize=auto;html=1;" edge="1" parent="1" source="Kmh5hY4usbPzmMP1m1Lr-87" target="Kmh5hY4usbPzmMP1m1Lr-117">
          <mxGeometry relative="1" as="geometry">
            <mxPoint x="197.49999999999997" y="795" as="targetPoint" />
          </mxGeometry>
        </mxCell>
        <mxCell id="Kmh5hY4usbPzmMP1m1Lr-86" value="否" style="edgeLabel;html=1;align=center;verticalAlign=middle;resizable=0;points=[];" vertex="1" connectable="0" parent="Kmh5hY4usbPzmMP1m1Lr-85">
          <mxGeometry x="-0.808" y="1" relative="1" as="geometry">
            <mxPoint as="offset" />
          </mxGeometry>
        </mxCell>
        <mxCell id="Kmh5hY4usbPzmMP1m1Lr-87" value="包月卡支付" style="rhombus;whiteSpace=wrap;html=1;" diagramCategory="general" diagramName="Diamond" vertex="1" parent="1">
          <mxGeometry x="117.5" y="600" width="160" height="60" as="geometry" />
        </mxCell>
        <mxCell id="Kmh5hY4usbPzmMP1m1Lr-88" value="" style="edgeStyle=orthogonalEdgeStyle;rounded=0;orthogonalLoop=1;jettySize=auto;html=1;" edge="1" parent="1" source="Kmh5hY4usbPzmMP1m1Lr-90" target="Kmh5hY4usbPzmMP1m1Lr-87">
          <mxGeometry relative="1" as="geometry" />
        </mxCell>
        <mxCell id="Kmh5hY4usbPzmMP1m1Lr-89" value="是" style="edgeLabel;html=1;align=center;verticalAlign=middle;resizable=0;points=[];" vertex="1" connectable="0" parent="Kmh5hY4usbPzmMP1m1Lr-88">
          <mxGeometry x="-0.3167" y="-1" relative="1" as="geometry">
            <mxPoint as="offset" />
          </mxGeometry>
        </mxCell>
        <mxCell id="Kmh5hY4usbPzmMP1m1Lr-90" value="订单状态是否预定成功" style="rhombus;whiteSpace=wrap;html=1;" diagramCategory="general" diagramName="Diamond" vertex="1" parent="1">
          <mxGeometry x="117.5" y="500" width="160" height="60" as="geometry" />
        </mxCell>
        <mxCell id="Kmh5hY4usbPzmMP1m1Lr-91" style="edgeStyle=orthogonalEdgeStyle;rounded=0;orthogonalLoop=1;jettySize=auto;html=1;entryX=0.5;entryY=0;entryDx=0;entryDy=0;" edge="1" parent="1" source="Kmh5hY4usbPzmMP1m1Lr-95" target="Kmh5hY4usbPzmMP1m1Lr-153">
          <mxGeometry relative="1" as="geometry" />
        </mxCell>
        <mxCell id="Kmh5hY4usbPzmMP1m1Lr-92" value="存在" style="edgeLabel;html=1;align=center;verticalAlign=middle;resizable=0;points=[];" vertex="1" connectable="0" parent="Kmh5hY4usbPzmMP1m1Lr-91">
          <mxGeometry x="-0.2952" y="-1" relative="1" as="geometry">
            <mxPoint as="offset" />
          </mxGeometry>
        </mxCell>
        <mxCell id="Kmh5hY4usbPzmMP1m1Lr-93" style="edgeStyle=orthogonalEdgeStyle;rounded=0;orthogonalLoop=1;jettySize=auto;html=1;" edge="1" parent="1" source="Kmh5hY4usbPzmMP1m1Lr-95" target="Kmh5hY4usbPzmMP1m1Lr-96">
          <mxGeometry relative="1" as="geometry">
            <Array as="points">
              <mxPoint x="640" y="230" />
              <mxPoint x="640" y="230" />
            </Array>
          </mxGeometry>
        </mxCell>
        <mxCell id="Kmh5hY4usbPzmMP1m1Lr-94" value="不存在" style="edgeLabel;html=1;align=center;verticalAlign=middle;resizable=0;points=[];" vertex="1" connectable="0" parent="Kmh5hY4usbPzmMP1m1Lr-93">
          <mxGeometry x="-0.262" y="-3" relative="1" as="geometry">
            <mxPoint as="offset" />
          </mxGeometry>
        </mxCell>
        <mxCell id="Kmh5hY4usbPzmMP1m1Lr-95" value="是否存在订单" style="rhombus;whiteSpace=wrap;html=1;" vertex="1" diagramName="Diamond" diagramCategory="general" parent="1">
          <mxGeometry x="117.5" y="200" width="160" height="60" as="geometry" />
        </mxCell>
        <mxCell id="Kmh5hY4usbPzmMP1m1Lr-96" value="结&lt;br /&gt;束" style="rounded=0;whiteSpace=wrap;html=1;" vertex="1" diagramName="Rectangle" diagramCategory="general" parent="1">
          <mxGeometry x="790" width="37" height="2200" as="geometry" />
        </mxCell>
        <mxCell id="Kmh5hY4usbPzmMP1m1Lr-97" style="edgeStyle=orthogonalEdgeStyle;rounded=0;orthogonalLoop=1;jettySize=auto;html=1;exitX=1;exitY=0.5;exitDx=0;exitDy=0;" edge="1" parent="1" source="Kmh5hY4usbPzmMP1m1Lr-101" target="Kmh5hY4usbPzmMP1m1Lr-96">
          <mxGeometry relative="1" as="geometry">
            <Array as="points">
              <mxPoint x="320" y="430" />
              <mxPoint x="320" y="430" />
            </Array>
          </mxGeometry>
        </mxCell>
        <mxCell id="Kmh5hY4usbPzmMP1m1Lr-98" value="是" style="edgeLabel;html=1;align=center;verticalAlign=middle;resizable=0;points=[];" vertex="1" connectable="0" parent="Kmh5hY4usbPzmMP1m1Lr-97">
          <mxGeometry x="-0.0877" relative="1" as="geometry">
            <mxPoint as="offset" />
          </mxGeometry>
        </mxCell>
        <mxCell id="Kmh5hY4usbPzmMP1m1Lr-99" style="edgeStyle=orthogonalEdgeStyle;rounded=0;orthogonalLoop=1;jettySize=auto;html=1;entryX=0.5;entryY=0;entryDx=0;entryDy=0;" edge="1" parent="1" source="Kmh5hY4usbPzmMP1m1Lr-101" target="Kmh5hY4usbPzmMP1m1Lr-90">
          <mxGeometry relative="1" as="geometry" />
        </mxCell>
        <mxCell id="Kmh5hY4usbPzmMP1m1Lr-100" value="否" style="edgeLabel;html=1;align=center;verticalAlign=middle;resizable=0;points=[];" vertex="1" connectable="0" parent="Kmh5hY4usbPzmMP1m1Lr-99">
          <mxGeometry x="0.2269" y="-1" relative="1" as="geometry">
            <mxPoint as="offset" />
          </mxGeometry>
        </mxCell>
        <mxCell id="Kmh5hY4usbPzmMP1m1Lr-101" value="锁座卡支付" style="rhombus;whiteSpace=wrap;html=1;" vertex="1" diagramName="Diamond" diagramCategory="general" parent="1">
          <mxGeometry x="117.5" y="400" width="160" height="60" as="geometry" />
        </mxCell>
        <mxCell id="Kmh5hY4usbPzmMP1m1Lr-102" style="edgeStyle=orthogonalEdgeStyle;rounded=0;orthogonalLoop=1;jettySize=auto;html=1;" edge="1" parent="1" source="Kmh5hY4usbPzmMP1m1Lr-103" target="Kmh5hY4usbPzmMP1m1Lr-105">
          <mxGeometry relative="1" as="geometry" />
        </mxCell>
        <mxCell id="Kmh5hY4usbPzmMP1m1Lr-103" value="是否为权益卡下单" style="rhombus;whiteSpace=wrap;html=1;" diagramCategory="general" diagramName="Diamond" vertex="1" parent="1">
          <mxGeometry x="117.5" y="800" width="160" height="60" as="geometry" />
        </mxCell>
        <mxCell id="Kmh5hY4usbPzmMP1m1Lr-104" style="edgeStyle=orthogonalEdgeStyle;rounded=0;orthogonalLoop=1;jettySize=auto;html=1;entryX=0.5;entryY=0;entryDx=0;entryDy=0;" edge="1" parent="1" source="Kmh5hY4usbPzmMP1m1Lr-105" target="Kmh5hY4usbPzmMP1m1Lr-109">
          <mxGeometry relative="1" as="geometry" />
        </mxCell>
        <mxCell id="Kmh5hY4usbPzmMP1m1Lr-105" value="查询上一个订单" style="rounded=1;whiteSpace=wrap;html=1;" vertex="1" diagramName="RoundedRectangle" diagramCategory="general" parent="1">
          <mxGeometry x="438" y="800" width="160" height="60" as="geometry" />
        </mxCell>
        <mxCell id="Kmh5hY4usbPzmMP1m1Lr-106" style="edgeStyle=orthogonalEdgeStyle;rounded=0;orthogonalLoop=1;jettySize=auto;html=1;" edge="1" parent="1" source="Kmh5hY4usbPzmMP1m1Lr-109">
          <mxGeometry relative="1" as="geometry">
            <mxPoint x="680" y="1000" as="targetPoint" />
          </mxGeometry>
        </mxCell>
        <mxCell id="Kmh5hY4usbPzmMP1m1Lr-107" value="预约成功&lt;br /&gt;预约取消" style="edgeLabel;html=1;align=center;verticalAlign=middle;resizable=0;points=[];" vertex="1" connectable="0" parent="Kmh5hY4usbPzmMP1m1Lr-106">
          <mxGeometry x="-0.1002" y="3" relative="1" as="geometry">
            <mxPoint as="offset" />
          </mxGeometry>
        </mxCell>
        <mxCell id="Kmh5hY4usbPzmMP1m1Lr-108" style="edgeStyle=orthogonalEdgeStyle;rounded=0;orthogonalLoop=1;jettySize=auto;html=1;entryX=0.5;entryY=0;entryDx=0;entryDy=0;" edge="1" parent="1" source="Kmh5hY4usbPzmMP1m1Lr-109" target="Kmh5hY4usbPzmMP1m1Lr-115">
          <mxGeometry relative="1" as="geometry" />
        </mxCell>
        <mxCell id="Kmh5hY4usbPzmMP1m1Lr-109" value="订单状态" style="rhombus;whiteSpace=wrap;html=1;" vertex="1" diagramName="Diamond" diagramCategory="general" parent="1">
          <mxGeometry x="438" y="900" width="160" height="60" as="geometry" />
        </mxCell>
        <mxCell id="Kmh5hY4usbPzmMP1m1Lr-110" style="edgeStyle=orthogonalEdgeStyle;rounded=0;orthogonalLoop=1;jettySize=auto;html=1;" edge="1" parent="1" source="Kmh5hY4usbPzmMP1m1Lr-90" target="Kmh5hY4usbPzmMP1m1Lr-96">
          <mxGeometry relative="1" as="geometry">
            <mxPoint x="159.86991869918666" y="485.04878048780483" as="sourcePoint" />
            <mxPoint x="436.4000000000001" y="485" as="targetPoint" />
            <Array as="points">
              <mxPoint x="500" y="530" />
              <mxPoint x="500" y="530" />
            </Array>
          </mxGeometry>
        </mxCell>
        <mxCell id="Kmh5hY4usbPzmMP1m1Lr-111" value="否" style="edgeLabel;html=1;align=center;verticalAlign=middle;resizable=0;points=[];" vertex="1" connectable="0" parent="Kmh5hY4usbPzmMP1m1Lr-110">
          <mxGeometry x="-0.0381" y="-1" relative="1" as="geometry">
            <mxPoint as="offset" />
          </mxGeometry>
        </mxCell>
        <mxCell id="Kmh5hY4usbPzmMP1m1Lr-112" style="edgeStyle=orthogonalEdgeStyle;rounded=0;orthogonalLoop=1;jettySize=auto;html=1;entryX=1;entryY=0.5;entryDx=0;entryDy=0;" edge="1" parent="1" target="Kmh5hY4usbPzmMP1m1Lr-117">
          <mxGeometry relative="1" as="geometry">
            <Array as="points">
              <mxPoint x="691" y="1130" />
            </Array>
            <mxPoint x="691.0000000000002" y="1060" as="sourcePoint" />
          </mxGeometry>
        </mxCell>
        <mxCell id="Kmh5hY4usbPzmMP1m1Lr-113" value="返还权益卡" style="rounded=0;whiteSpace=wrap;html=1;" vertex="1" diagramName="Rectangle" diagramCategory="general" parent="1">
          <mxGeometry x="580.0000000000001" y="990" width="160" height="60" as="geometry" />
        </mxCell>
        <mxCell id="Kmh5hY4usbPzmMP1m1Lr-114" style="edgeStyle=orthogonalEdgeStyle;rounded=0;orthogonalLoop=1;jettySize=auto;html=1;entryX=1;entryY=0.5;entryDx=0;entryDy=0;exitX=0.5;exitY=1;exitDx=0;exitDy=0;" edge="1" parent="1" source="Kmh5hY4usbPzmMP1m1Lr-115" target="Kmh5hY4usbPzmMP1m1Lr-117">
          <mxGeometry relative="1" as="geometry" />
        </mxCell>
        <mxCell id="Kmh5hY4usbPzmMP1m1Lr-115" value="不返还权益卡" style="rounded=0;whiteSpace=wrap;html=1;" vertex="1" diagramName="Rectangle" diagramCategory="general" parent="1">
          <mxGeometry x="277.50000000000006" y="990" width="160" height="60" as="geometry" />
        </mxCell>
        <mxCell id="Kmh5hY4usbPzmMP1m1Lr-116" style="edgeStyle=orthogonalEdgeStyle;rounded=0;orthogonalLoop=1;jettySize=auto;html=1;" edge="1" parent="1" source="Kmh5hY4usbPzmMP1m1Lr-117" target="Kmh5hY4usbPzmMP1m1Lr-122">
          <mxGeometry relative="1" as="geometry" />
        </mxCell>
        <mxCell id="Kmh5hY4usbPzmMP1m1Lr-117" value="&lt;span style&gt;距学习开始时间剩余分钟数&lt;/span&gt;" style="rounded=0;whiteSpace=wrap;html=1;" diagramCategory="general" diagramName="Rectangle" vertex="1" parent="1">
          <mxGeometry x="117.5" y="1100" width="160" height="60" as="geometry" />
        </mxCell>
        <mxCell id="Kmh5hY4usbPzmMP1m1Lr-118" style="edgeStyle=orthogonalEdgeStyle;rounded=0;orthogonalLoop=1;jettySize=auto;html=1;" edge="1" parent="1" source="Kmh5hY4usbPzmMP1m1Lr-122" target="Kmh5hY4usbPzmMP1m1Lr-124">
          <mxGeometry relative="1" as="geometry" />
        </mxCell>
        <mxCell id="Kmh5hY4usbPzmMP1m1Lr-119" value="之内" style="edgeLabel;html=1;align=center;verticalAlign=middle;resizable=0;points=[];" vertex="1" connectable="0" parent="Kmh5hY4usbPzmMP1m1Lr-118">
          <mxGeometry x="-0.1567" relative="1" as="geometry">
            <mxPoint as="offset" />
          </mxGeometry>
        </mxCell>
        <mxCell id="Kmh5hY4usbPzmMP1m1Lr-120" style="edgeStyle=orthogonalEdgeStyle;rounded=0;orthogonalLoop=1;jettySize=auto;html=1;entryX=0;entryY=0.5;entryDx=0;entryDy=0;" edge="1" parent="1" source="Kmh5hY4usbPzmMP1m1Lr-122" target="Kmh5hY4usbPzmMP1m1Lr-127">
          <mxGeometry relative="1" as="geometry">
            <Array as="points">
              <mxPoint x="97" y="1230" />
              <mxPoint x="97" y="1481" />
              <mxPoint x="118" y="1481" />
            </Array>
          </mxGeometry>
        </mxCell>
        <mxCell id="Kmh5hY4usbPzmMP1m1Lr-121" value="之外" style="edgeLabel;html=1;align=center;verticalAlign=middle;resizable=0;points=[];" vertex="1" connectable="0" parent="Kmh5hY4usbPzmMP1m1Lr-120">
          <mxGeometry x="-0.2279" y="-1" relative="1" as="geometry">
            <mxPoint as="offset" />
          </mxGeometry>
        </mxCell>
        <mxCell id="Kmh5hY4usbPzmMP1m1Lr-122" value="惩罚分钟临界值" style="rhombus;whiteSpace=wrap;html=1;" diagramCategory="general" diagramName="Diamond" vertex="1" parent="1">
          <mxGeometry x="117.5" y="1200" width="160" height="60" as="geometry" />
        </mxCell>
        <mxCell id="Kmh5hY4usbPzmMP1m1Lr-123" style="edgeStyle=orthogonalEdgeStyle;rounded=0;orthogonalLoop=1;jettySize=auto;html=1;entryX=0.5;entryY=0;entryDx=0;entryDy=0;" edge="1" parent="1" source="Kmh5hY4usbPzmMP1m1Lr-124" target="Kmh5hY4usbPzmMP1m1Lr-127">
          <mxGeometry relative="1" as="geometry" />
        </mxCell>
        <mxCell id="Kmh5hY4usbPzmMP1m1Lr-124" value="&lt;span style&gt;扣除惩罚分钟&lt;/span&gt;" style="rounded=0;whiteSpace=wrap;html=1;" diagramCategory="general" diagramName="Rectangle" vertex="1" parent="1">
          <mxGeometry x="117.5" y="1300" width="160" height="60" as="geometry" />
        </mxCell>
        <mxCell id="Kmh5hY4usbPzmMP1m1Lr-125" style="edgeStyle=orthogonalEdgeStyle;rounded=0;orthogonalLoop=1;jettySize=auto;html=1;entryX=0.5;entryY=0;entryDx=0;entryDy=0;" edge="1" parent="1" source="Kmh5hY4usbPzmMP1m1Lr-127" target="Kmh5hY4usbPzmMP1m1Lr-131">
          <mxGeometry relative="1" as="geometry" />
        </mxCell>
        <mxCell id="Kmh5hY4usbPzmMP1m1Lr-126" value="" style="edgeStyle=orthogonalEdgeStyle;rounded=0;orthogonalLoop=1;jettySize=auto;html=1;" edge="1" parent="1" source="Kmh5hY4usbPzmMP1m1Lr-127" target="Kmh5hY4usbPzmMP1m1Lr-128">
          <mxGeometry relative="1" as="geometry" />
        </mxCell>
        <mxCell id="Kmh5hY4usbPzmMP1m1Lr-127" value="返还小时卡" style="rounded=0;whiteSpace=wrap;html=1;" diagramCategory="general" diagramName="Rectangle" vertex="1" parent="1">
          <mxGeometry x="117.5" y="1400" width="160" height="60" as="geometry" />
        </mxCell>
        <mxCell id="Kmh5hY4usbPzmMP1m1Lr-128" value="小时卡逻辑复用" style="rounded=0;whiteSpace=wrap;html=1;" diagramCategory="general" diagramName="Rectangle" vertex="1" parent="1">
          <mxGeometry x="438" y="1400" width="160" height="60" as="geometry" />
        </mxCell>
        <mxCell id="Kmh5hY4usbPzmMP1m1Lr-129" style="edgeStyle=orthogonalEdgeStyle;rounded=0;orthogonalLoop=1;jettySize=auto;html=1;entryX=0.5;entryY=0;entryDx=0;entryDy=0;" edge="1" parent="1" source="Kmh5hY4usbPzmMP1m1Lr-131" target="Kmh5hY4usbPzmMP1m1Lr-135">
          <mxGeometry relative="1" as="geometry" />
        </mxCell>
        <mxCell id="Kmh5hY4usbPzmMP1m1Lr-130" value="" style="edgeStyle=orthogonalEdgeStyle;rounded=0;orthogonalLoop=1;jettySize=auto;html=1;" edge="1" parent="1" source="Kmh5hY4usbPzmMP1m1Lr-131" target="Kmh5hY4usbPzmMP1m1Lr-132">
          <mxGeometry relative="1" as="geometry" />
        </mxCell>
        <mxCell id="Kmh5hY4usbPzmMP1m1Lr-131" value="返还次卡" style="rounded=0;whiteSpace=wrap;html=1;" diagramCategory="general" diagramName="Rectangle" vertex="1" parent="1">
          <mxGeometry x="117.5" y="1500" width="160" height="60" as="geometry" />
        </mxCell>
        <mxCell id="Kmh5hY4usbPzmMP1m1Lr-132" value="次卡逻辑复用" style="rounded=0;whiteSpace=wrap;html=1;" diagramCategory="general" diagramName="Rectangle" vertex="1" parent="1">
          <mxGeometry x="438" y="1500" width="160" height="60" as="geometry" />
        </mxCell>
        <mxCell id="Kmh5hY4usbPzmMP1m1Lr-133" value="" style="edgeStyle=orthogonalEdgeStyle;rounded=0;orthogonalLoop=1;jettySize=auto;html=1;" edge="1" parent="1" source="Kmh5hY4usbPzmMP1m1Lr-135" target="Kmh5hY4usbPzmMP1m1Lr-136">
          <mxGeometry relative="1" as="geometry" />
        </mxCell>
        <mxCell id="Kmh5hY4usbPzmMP1m1Lr-134" style="edgeStyle=orthogonalEdgeStyle;rounded=0;orthogonalLoop=1;jettySize=auto;html=1;" edge="1" parent="1" source="Kmh5hY4usbPzmMP1m1Lr-135" target="Kmh5hY4usbPzmMP1m1Lr-139">
          <mxGeometry relative="1" as="geometry" />
        </mxCell>
        <mxCell id="Kmh5hY4usbPzmMP1m1Lr-135" value="返还天卡" style="rounded=0;whiteSpace=wrap;html=1;" diagramCategory="general" diagramName="Rectangle" vertex="1" parent="1">
          <mxGeometry x="117.5" y="1600" width="160" height="60" as="geometry" />
        </mxCell>
        <mxCell id="Kmh5hY4usbPzmMP1m1Lr-136" value="天卡逻辑复用" style="rounded=0;whiteSpace=wrap;html=1;" diagramCategory="general" diagramName="Rectangle" vertex="1" parent="1">
          <mxGeometry x="438" y="1600" width="160" height="60" as="geometry" />
        </mxCell>
        <mxCell id="Kmh5hY4usbPzmMP1m1Lr-137" value="" style="edgeStyle=orthogonalEdgeStyle;rounded=0;orthogonalLoop=1;jettySize=auto;html=1;" edge="1" parent="1" source="Kmh5hY4usbPzmMP1m1Lr-139" target="Kmh5hY4usbPzmMP1m1Lr-151">
          <mxGeometry relative="1" as="geometry" />
        </mxCell>
        <mxCell id="Kmh5hY4usbPzmMP1m1Lr-138" value="" style="edgeStyle=orthogonalEdgeStyle;rounded=0;orthogonalLoop=1;jettySize=auto;html=1;" edge="1" parent="1" source="Kmh5hY4usbPzmMP1m1Lr-139" target="Kmh5hY4usbPzmMP1m1Lr-141">
          <mxGeometry relative="1" as="geometry" />
        </mxCell>
        <mxCell id="Kmh5hY4usbPzmMP1m1Lr-139" value="返还包月卡" style="rounded=0;whiteSpace=wrap;html=1;" diagramCategory="general" diagramName="Rectangle" vertex="1" parent="1">
          <mxGeometry x="117.5" y="1700" width="160" height="60" as="geometry" />
        </mxCell>
        <mxCell id="Kmh5hY4usbPzmMP1m1Lr-140" value="" style="edgeStyle=orthogonalEdgeStyle;rounded=0;orthogonalLoop=1;jettySize=auto;html=1;" edge="1" parent="1" source="Kmh5hY4usbPzmMP1m1Lr-141" target="Kmh5hY4usbPzmMP1m1Lr-143">
          <mxGeometry relative="1" as="geometry" />
        </mxCell>
        <mxCell id="Kmh5hY4usbPzmMP1m1Lr-141" value="更新订单状态" style="rounded=0;whiteSpace=wrap;html=1;" diagramCategory="general" diagramName="Rectangle" vertex="1" parent="1">
          <mxGeometry x="117.5" y="1800" width="160" height="60" as="geometry" />
        </mxCell>
        <mxCell id="Kmh5hY4usbPzmMP1m1Lr-142" value="" style="edgeStyle=orthogonalEdgeStyle;rounded=0;orthogonalLoop=1;jettySize=auto;html=1;" edge="1" parent="1" source="Kmh5hY4usbPzmMP1m1Lr-143" target="Kmh5hY4usbPzmMP1m1Lr-146">
          <mxGeometry relative="1" as="geometry" />
        </mxCell>
        <mxCell id="Kmh5hY4usbPzmMP1m1Lr-143" value="订单操作日志" style="rounded=0;whiteSpace=wrap;html=1;" diagramCategory="general" diagramName="Rectangle" vertex="1" parent="1">
          <mxGeometry x="117.5" y="1900" width="160" height="60" as="geometry" />
        </mxCell>
        <mxCell id="Kmh5hY4usbPzmMP1m1Lr-144" value="" style="edgeStyle=orthogonalEdgeStyle;rounded=0;orthogonalLoop=1;jettySize=auto;html=1;" edge="1" parent="1" source="Kmh5hY4usbPzmMP1m1Lr-146" target="Kmh5hY4usbPzmMP1m1Lr-150">
          <mxGeometry relative="1" as="geometry" />
        </mxCell>
        <mxCell id="Kmh5hY4usbPzmMP1m1Lr-145" value="" style="edgeStyle=orthogonalEdgeStyle;rounded=0;orthogonalLoop=1;jettySize=auto;html=1;" edge="1" parent="1" source="Kmh5hY4usbPzmMP1m1Lr-146" target="Kmh5hY4usbPzmMP1m1Lr-148">
          <mxGeometry relative="1" as="geometry" />
        </mxCell>
        <mxCell id="Kmh5hY4usbPzmMP1m1Lr-146" value="删除2个定时任务" style="rounded=0;whiteSpace=wrap;html=1;" diagramCategory="general" diagramName="Rectangle" vertex="1" parent="1">
          <mxGeometry x="117.5" y="2000" width="160" height="60" as="geometry" />
        </mxCell>
        <mxCell id="Kmh5hY4usbPzmMP1m1Lr-147" style="edgeStyle=orthogonalEdgeStyle;rounded=0;orthogonalLoop=1;jettySize=auto;html=1;" edge="1" parent="1" source="Kmh5hY4usbPzmMP1m1Lr-148" target="Kmh5hY4usbPzmMP1m1Lr-96">
          <mxGeometry relative="1" as="geometry">
            <Array as="points">
              <mxPoint x="670" y="2130" />
              <mxPoint x="670" y="2130" />
            </Array>
          </mxGeometry>
        </mxCell>
        <mxCell id="Kmh5hY4usbPzmMP1m1Lr-148" value="发送MQ消息" style="rounded=0;whiteSpace=wrap;html=1;" diagramCategory="general" diagramName="Rectangle" vertex="1" parent="1">
          <mxGeometry x="117.5" y="2100" width="160" height="60" as="geometry" />
        </mxCell>
        <mxCell id="Kmh5hY4usbPzmMP1m1Lr-149" style="edgeStyle=orthogonalEdgeStyle;rounded=0;orthogonalLoop=1;jettySize=auto;html=1;entryX=0;entryY=0.5;entryDx=0;entryDy=0;" edge="1" parent="1" source="Kmh5hY4usbPzmMP1m1Lr-150" target="Kmh5hY4usbPzmMP1m1Lr-159">
          <mxGeometry relative="1" as="geometry" />
        </mxCell>
        <mxCell id="Kmh5hY4usbPzmMP1m1Lr-150" value="删除学习时间开始定时任务" style="rounded=0;whiteSpace=wrap;html=1;" diagramCategory="general" diagramName="Rectangle" vertex="1" parent="1">
          <mxGeometry x="340" y="2000" width="160" height="60" as="geometry" />
        </mxCell>
        <mxCell id="Kmh5hY4usbPzmMP1m1Lr-151" value="包月卡逻辑复用" style="rounded=0;whiteSpace=wrap;html=1;" diagramCategory="general" diagramName="Rectangle" vertex="1" parent="1">
          <mxGeometry x="438" y="1700" width="160" height="60" as="geometry" />
        </mxCell>
        <mxCell id="Kmh5hY4usbPzmMP1m1Lr-152" style="edgeStyle=orthogonalEdgeStyle;rounded=0;orthogonalLoop=1;jettySize=auto;html=1;" edge="1" parent="1" source="Kmh5hY4usbPzmMP1m1Lr-153">
          <mxGeometry relative="1" as="geometry">
            <mxPoint x="197.5" y="440" as="targetPoint" />
          </mxGeometry>
        </mxCell>
        <mxCell id="Kmh5hY4usbPzmMP1m1Lr-153" value="&lt;span style&gt;距学习开始时间剩余分钟数&lt;/span&gt;" style="rounded=0;whiteSpace=wrap;html=1;" diagramCategory="general" diagramName="Rectangle" vertex="1" parent="1">
          <mxGeometry x="117.5" y="300" width="160" height="60" as="geometry" />
        </mxCell>
        <mxCell id="Kmh5hY4usbPzmMP1m1Lr-154" style="edgeStyle=orthogonalEdgeStyle;rounded=0;orthogonalLoop=1;jettySize=auto;html=1;" edge="1" parent="1" source="Kmh5hY4usbPzmMP1m1Lr-158" target="Kmh5hY4usbPzmMP1m1Lr-96">
          <mxGeometry relative="1" as="geometry">
            <Array as="points">
              <mxPoint x="760" y="730" />
              <mxPoint x="760" y="730" />
            </Array>
          </mxGeometry>
        </mxCell>
        <mxCell id="Kmh5hY4usbPzmMP1m1Lr-155" value="是" style="edgeLabel;html=1;align=center;verticalAlign=middle;resizable=0;points=[];" vertex="1" connectable="0" parent="Kmh5hY4usbPzmMP1m1Lr-154">
          <mxGeometry x="0.6884" y="-94" relative="1" as="geometry">
            <mxPoint x="-95" y="-92" as="offset" />
          </mxGeometry>
        </mxCell>
        <mxCell id="Kmh5hY4usbPzmMP1m1Lr-156" style="edgeStyle=orthogonalEdgeStyle;rounded=0;orthogonalLoop=1;jettySize=auto;html=1;entryX=0.5;entryY=0;entryDx=0;entryDy=0;" edge="1" parent="1" source="Kmh5hY4usbPzmMP1m1Lr-158" target="Kmh5hY4usbPzmMP1m1Lr-103">
          <mxGeometry relative="1" as="geometry" />
        </mxCell>
        <mxCell id="Kmh5hY4usbPzmMP1m1Lr-157" value="否" style="edgeLabel;html=1;align=center;verticalAlign=middle;resizable=0;points=[];" vertex="1" connectable="0" parent="Kmh5hY4usbPzmMP1m1Lr-156">
          <mxGeometry x="-0.4156" y="-1" relative="1" as="geometry">
            <mxPoint as="offset" />
          </mxGeometry>
        </mxCell>
        <mxCell id="Kmh5hY4usbPzmMP1m1Lr-158" value="临近学习开始时间" style="rhombus;whiteSpace=wrap;html=1;" diagramCategory="general" diagramName="Diamond" vertex="1" parent="1">
          <mxGeometry x="437.5" y="700" width="160" height="60" as="geometry" />
        </mxCell>
        <mxCell id="Kmh5hY4usbPzmMP1m1Lr-159" value="删除未到店定时任务" style="rounded=0;whiteSpace=wrap;html=1;" diagramCategory="general" diagramName="Rectangle" vertex="1" parent="1">
          <mxGeometry x="550" y="2000" width="160" height="60" as="geometry" />
        </mxCell>
      </root>
    </mxGraphModel>
  </diagram>
</mxfile>
